<svg width="241" height="48" viewBox="0 0 241 48" fill="none" xmlns="http://www.w3.org/2000/svg">
	<path fill-rule="evenodd" clip-rule="evenodd" d="M4.52802 8.58398C6.92802 8.58398 8.65602 6.90398 8.65602 4.50397C8.65602 2.10397 6.92802 0.375977 4.52802 0.375977C2.12802 0.375977 0.400024 2.10397 0.400024 4.50397C0.400024 6.90398 2.12802 8.58398 4.52802 8.58398ZM7.93603 37V11.848H1.12002V37H7.93603ZM20.4862 11.848H14.1982V37H21.0142V22.6C21.0142 19.24 22.8382 17.128 26.1502 17.128C29.1742 17.128 30.4222 19.144 30.4222 22.072V37H37.2381V21.304C37.2381 15.304 34.0222 11.272 27.9742 11.272C24.2302 11.272 21.6382 12.76 20.4862 14.92V11.848ZM54.3006 37.576C47.0046 37.576 41.6766 31.912 41.6766 24.424C41.6766 16.936 47.0046 11.272 54.3006 11.272C62.1246 11.272 65.8206 16.792 66.3007 21.064H59.2926C58.7646 18.904 56.7486 17.32 54.2526 17.32C50.6046 17.32 48.4926 20.2 48.4926 24.424C48.4926 28.648 50.6046 31.528 54.2526 31.528C56.7486 31.528 58.7646 29.944 59.2926 27.784H66.3007C65.8206 32.056 62.1246 37.576 54.3006 37.576ZM81.6891 37.576C89.7532 37.576 94.8892 31.576 94.8892 24.424C94.8892 17.272 89.7532 11.272 81.6891 11.272C73.6251 11.272 68.4892 17.272 68.4892 24.424C68.4892 31.576 73.6251 37.576 81.6891 37.576ZM75.3051 24.424C75.3051 19.912 78.0891 17.272 81.6891 17.272C85.2891 17.272 88.0732 19.912 88.0732 24.424C88.0732 28.936 85.2891 31.576 81.6891 31.576C78.0891 31.576 75.3051 28.936 75.3051 24.424ZM109.446 11.272C112.998 11.272 115.734 12.616 117.318 14.92V11.848H123.606V36.04C123.606 42.616 119.142 47.512 111.462 47.512C103.686 47.512 100.278 42.328 99.8935 38.344H106.71C106.998 39.784 108.15 41.656 111.558 41.656C115.014 41.656 116.79 39.736 116.79 36.76V33.256C115.494 34.984 112.998 36.52 109.446 36.52C102.438 36.52 97.9735 30.904 97.9735 23.896C97.9735 16.888 102.438 11.272 109.446 11.272ZM110.886 30.52C114.534 30.52 116.982 27.832 116.982 23.896C116.982 19.96 114.534 17.272 110.886 17.272C107.238 17.272 104.79 19.96 104.79 23.896C104.79 27.832 107.238 30.52 110.886 30.52ZM135.892 11.848H129.604V37H136.42V22.6C136.42 19.24 138.244 17.128 141.556 17.128C144.58 17.128 145.828 19.144 145.828 22.072V37H152.644V21.304C152.644 15.304 149.428 11.272 143.38 11.272C139.636 11.272 137.044 12.76 135.892 14.92V11.848ZM166.203 4.50397C166.203 6.90398 164.475 8.58398 162.075 8.58398C159.675 8.58398 157.947 6.90398 157.947 4.50397C157.947 2.10397 159.675 0.375977 162.075 0.375977C164.475 0.375977 166.203 2.10397 166.203 4.50397ZM183.553 30.952C183.553 30.952 182.881 31.192 181.969 31.192C180.193 31.192 179.425 30.424 179.425 28.744V17.224H183.601V11.848H179.425V5.60798H172.609V11.848H169.201V17.224H172.609V29.464C172.609 34.312 174.817 37.144 180.337 37.144C182.401 37.144 183.553 36.856 183.553 36.856V30.952ZM212.077 24.424C212.077 31.576 206.941 37.576 198.877 37.576C190.813 37.576 185.677 31.576 185.677 24.424C185.677 17.272 190.813 11.272 198.877 11.272C206.941 11.272 212.077 17.272 212.077 24.424ZM165.483 37H158.667V11.848H165.483V37ZM198.877 17.272C195.277 17.272 192.493 19.912 192.493 24.424C192.493 28.936 195.277 31.576 198.877 31.576C202.477 31.576 205.261 28.936 205.261 24.424C205.261 19.912 202.477 17.272 198.877 17.272ZM217 31.0801H241V37.5121H217V31.0801Z" fill="white"/>
</svg>